<?xml version="1.0" encoding="UTF-8" standalone="no"?>
<!-- Created with Inkscape (http://www.inkscape.org/) -->

<svg
   xmlns:dc="http://purl.org/dc/elements/1.1/"
   xmlns:cc="http://creativecommons.org/ns#"
   xmlns:rdf="http://www.w3.org/1999/02/22-rdf-syntax-ns#"
   xmlns:svg="http://www.w3.org/2000/svg"
   xmlns="http://www.w3.org/2000/svg"
   xmlns:xlink="http://www.w3.org/1999/xlink"
   xmlns:sodipodi="http://sodipodi.sourceforge.net/DTD/sodipodi-0.dtd"
   xmlns:inkscape="http://www.inkscape.org/namespaces/inkscape"
   width="51.08881"
   height="40.82074"
   id="svg2"
   sodipodi:version="0.32"
   inkscape:version="0.48.2 r9819"
   sodipodi:docname="bin.svg"
   version="1.0"
   inkscape:output_extension="org.inkscape.output.svg.inkscape"
   inkscape:export-filename="C:\Users\siovene\Downloads\astrobin-logo.png"
   inkscape:export-xdpi="82.930542"
   inkscape:export-ydpi="82.930542">
  <defs
     id="defs4">
    <linearGradient
       inkscape:collect="always"
       id="linearGradient3815">
      <stop
         style="stop-color:#b1883f;stop-opacity:1;"
         offset="0"
         id="stop3817" />
      <stop
         style="stop-color:#b1883f;stop-opacity:0;"
         offset="1"
         id="stop3819" />
    </linearGradient>
    <linearGradient
       id="linearGradient7504">
      <stop
         style="stop-color:white;stop-opacity:0.53218883"
         offset="0"
         id="stop7506" />
      <stop
         style="stop-color:white;stop-opacity:0;"
         offset="1"
         id="stop7508" />
    </linearGradient>
    <linearGradient
       inkscape:collect="always"
       id="linearGradient5734">
      <stop
         style="stop-color:white;stop-opacity:0.88627452"
         offset="0"
         id="stop5736" />
      <stop
         style="stop-color:white;stop-opacity:0.14509805"
         offset="1"
         id="stop5738" />
    </linearGradient>
    <linearGradient
       id="linearGradient5838">
      <stop
         style="stop-color:#7c6634;stop-opacity:1;"
         offset="0"
         id="stop5840" />
      <stop
         style="stop-color:#5f4e28;stop-opacity:1.0000000;"
         offset="1.0000000"
         id="stop5842" />
    </linearGradient>
    <linearGradient
       id="linearGradient5056">
      <stop
         id="stop5058"
         offset="0.0000000"
         style="stop-color:#000000;stop-opacity:0.13541667;" />
      <stop
         id="stop5060"
         offset="1"
         style="stop-color:#000000;stop-opacity:0;" />
    </linearGradient>
    <linearGradient
       id="linearGradient5050">
      <stop
         id="stop5052"
         offset="0.0000000"
         style="stop-color:#000000;stop-opacity:0.15625000;" />
      <stop
         id="stop5054"
         offset="1"
         style="stop-color:#000000;stop-opacity:0;" />
    </linearGradient>
    <linearGradient
       id="linearGradient5030">
      <stop
         style="stop-color:#000000;stop-opacity:0.20833331;"
         offset="0.0000000"
         id="stop5032" />
      <stop
         style="stop-color:#000000;stop-opacity:0;"
         offset="1"
         id="stop5034" />
    </linearGradient>
    <linearGradient
       inkscape:collect="always"
       id="linearGradient4294">
      <stop
         style="stop-color:#ffffff;stop-opacity:0.66799998"
         offset="0"
         id="stop4296" />
      <stop
         style="stop-color:#ffffff;stop-opacity:0;"
         offset="1"
         id="stop4298" />
    </linearGradient>
    <linearGradient
       id="linearGradient3546">
      <stop
         style="stop-color:#e6be76;stop-opacity:1;"
         offset="0"
         id="stop3548" />
      <stop
         style="stop-color:#ba9a5f;stop-opacity:1.0000000;"
         offset="1.0000000"
         id="stop3550" />
    </linearGradient>
    <linearGradient
       inkscape:collect="always"
       xlink:href="#linearGradient5734"
       id="linearGradient5740"
       x1="46"
       y1="37.749943"
       x2="63.75"
       y2="102.78278"
       gradientUnits="userSpaceOnUse"
       gradientTransform="matrix(0.388313,0,0,0.376593,-5.514659e-2,-2.49561)" />
    <linearGradient
       y2="42.025642"
       y1="12.897436"
       xlink:href="#linearGradient2166"
       x2="63.358974"
       x1="97.410255"
       inkscape:collect="always"
       id="linearGradient2176"
       gradientUnits="userSpaceOnUse"
       gradientTransform="translate(-0.384615,8.589744)" />
    <linearGradient
       y2="12"
       y1="41"
       xlink:href="#linearGradient2166"
       x2="95"
       x1="61"
       inkscape:collect="always"
       id="linearGradient2172"
       gradientUnits="userSpaceOnUse"
       gradientTransform="translate(-0.384615,8.589744)" />
    <linearGradient
       y2="895.68713"
       y1="1079.7177"
       xlink:href="#linearGradient1017"
       x2="441.94626"
       x1="97.909615"
       inkscape:collect="always"
       id="linearGradient6641"
       gradientUnits="userSpaceOnUse"
       gradientTransform="scale(1.154701,0.866025)" />
    <linearGradient
       y2="1285.3988"
       y1="1285.3988"
       xlink:href="#linearGradient1017"
       x2="84.609047"
       x1="181.43164"
       inkscape:collect="always"
       id="linearGradient5876"
       gradientUnits="userSpaceOnUse"
       gradientTransform="scale(1.154701,0.866025)" />
    <linearGradient
       y2="21.069715"
       y1="813.86877"
       xlink:href="#linearGradient6517"
       x2="841.63055"
       x1="45.506062"
       inkscape:collect="always"
       id="linearGradient5092"
       gradientUnits="userSpaceOnUse"
       gradientTransform="matrix(0.928107,0,0,0.69608,-112.1865,694.2911)" />
    <linearGradient
       id="linearGradient8387">
      <stop
         style="stop-color:#ffffff;stop-opacity:0.0000000;"
         offset="0.0000000"
         id="stop8388" />
      <stop
         style="stop-color:#ffffff;stop-opacity:0.098039217;"
         offset="0.42613181"
         id="stop8392" />
      <stop
         style="stop-color:#ffffff;stop-opacity:0.16853933;"
         offset="0.52207208"
         id="stop8389" />
      <stop
         style="stop-color:#ffffff;stop-opacity:0.098039217;"
         offset="0.63933450"
         id="stop8391" />
      <stop
         style="stop-color:#ffffff;stop-opacity:0.0000000;"
         offset="1.0000000"
         id="stop8390" />
    </linearGradient>
    <linearGradient
       id="linearGradient6517">
      <stop
         style="stop-color:#002f8a;stop-opacity:1.0000000;"
         offset="0.0000000"
         id="stop6518" />
      <stop
         style="stop-color:#005dcc;stop-opacity:1.0000000;"
         offset="1.0000000"
         id="stop6520" />
    </linearGradient>
    <linearGradient
       id="linearGradient2152">
      <stop
         style="stop-color:#ffffff;stop-opacity:1.0000000;"
         offset="0.0000000"
         id="stop2153" />
      <stop
         style="stop-color:#ffffff;stop-opacity:0.49803922;"
         offset="0.0099999998"
         id="stop2778" />
      <stop
         style="stop-color:#ffffff;stop-opacity:0.0000000;"
         offset="1.0000000"
         id="stop2154" />
    </linearGradient>
    <linearGradient
       y2="-157.47726"
       y1="-177.46144"
       xlink:href="#linearGradient1022"
       x2="9.707943"
       x1="-8.4761829"
       id="linearGradient1021"
       gradientUnits="userSpaceOnUse"
       gradientTransform="scale(1.578926,0.633342)" />
    <linearGradient
       y2="-127.91295"
       y1="-154.59496"
       xlink:href="#linearGradient1017"
       x2="12.010341"
       x1="-3.191411"
       id="linearGradient1025"
       gradientUnits="userSpaceOnUse"
       gradientTransform="scale(1.555191,0.643008)" />
    <linearGradient
       y2="-178.84084"
       y1="-210.38924"
       xlink:href="#linearGradient1017"
       x2="-19.672827"
       x1="-27.045366"
       id="linearGradient1026"
       gradientUnits="userSpaceOnUse"
       gradientTransform="scale(1.916124,0.521887)" />
    <linearGradient
       id="linearGradient2302">
      <stop
         style="stop-color:#2c3d78;stop-opacity:1.0000000;"
         offset="0.0000000"
         id="stop2303" />
      <stop
         style="stop-color:#ffffff;stop-opacity:1.0000000;"
         offset="1.0000000"
         id="stop2304" />
    </linearGradient>
    <linearGradient
       id="linearGradient1022">
      <stop
         style="stop-color:#000000;stop-opacity:0.40833300;"
         offset="0.0000000"
         id="stop1024" />
      <stop
         style="stop-color:#000000;stop-opacity:0.0000000;"
         offset="1.0000000"
         id="stop1023" />
    </linearGradient>
    <linearGradient
       id="linearGradient1017">
      <stop
         style="stop-color:#ffffff;stop-opacity:0.17500000;"
         offset="0.0000000"
         id="stop1019" />
      <stop
         style="stop-color:#ffffff;stop-opacity:0.37500000;"
         offset="1.0000000"
         id="stop1018" />
    </linearGradient>
    <defs
       id="defs877">
      <linearGradient
         y2="0.5"
         y1="0.5"
         xlink:href="#linearGradient1017"
         x2="1"
         x1="0"
         spreadMethod="pad"
         id="linearGradient585"
         gradientUnits="objectBoundingBox" />
      <linearGradient
         y2="0.5"
         y1="0.5"
         xlink:href="#linearGradient1022"
         x2="1"
         x1="0"
         spreadMethod="pad"
         id="linearGradient579"
         gradientUnits="objectBoundingBox" />
      <linearGradient
         y2="0.60227275"
         y1="0.51136363"
         xlink:href="#linearGradient579"
         x2="0.41176471"
         x1="0.4852941"
         id="linearGradient582" />
      <linearGradient
         y2="1.0964912"
         y1="0.12280702"
         xlink:href="#linearGradient585"
         x2="0.3272059"
         x1="0.50735295"
         id="linearGradient584" />
      <linearGradient
         xlink:href="#linearGradient585"
         id="linearGradient589" />
    </defs>
    <linearGradient
       id="linearGradient3658">
      <stop
         style="stop-color:#ffff47;stop-opacity:1;"
         offset="0"
         id="stop3660" />
      <stop
         style="stop-color:#ffdd47;stop-opacity:1.0000000;"
         offset="1.0000000"
         id="stop3662" />
    </linearGradient>
    <linearGradient
       id="linearGradient4564">
      <stop
         style="stop-color:#c6a965;stop-opacity:1;"
         offset="0"
         id="stop4566" />
      <stop
         style="stop-color:#b79d5d;stop-opacity:1.0000000;"
         offset="1.0000000"
         id="stop4568" />
    </linearGradient>
    <linearGradient
       id="linearGradient4580">
      <stop
         style="stop-color:#d3b46b;stop-opacity:1;"
         offset="0"
         id="stop4582" />
      <stop
         style="stop-color:#ad9457;stop-opacity:1.0000000;"
         offset="1.0000000"
         id="stop4584" />
    </linearGradient>
    <linearGradient
       id="linearGradient4596">
      <stop
         style="stop-color:#937541;stop-opacity:1;"
         offset="0"
         id="stop4598" />
      <stop
         style="stop-color:#524124;stop-opacity:1.0000000;"
         offset="1.0000000"
         id="stop4600" />
    </linearGradient>
    <linearGradient
       id="linearGradient4612">
      <stop
         style="stop-color:#193670;stop-opacity:1;"
         offset="0"
         id="stop4614" />
      <stop
         style="stop-color:#132955;stop-opacity:1.0000000;"
         offset="1.0000000"
         id="stop4616" />
    </linearGradient>
    <linearGradient
       id="linearGradient2166">
      <stop
         style="stop-color:#009300;stop-opacity:1.0000000;"
         offset="0.0000000"
         id="stop2168" />
      <stop
         style="stop-color:#00cd00;stop-opacity:1.0000000;"
         offset="1.0000000"
         id="stop2170" />
    </linearGradient>
    <linearGradient
       inkscape:collect="always"
       xlink:href="#linearGradient4294"
       id="linearGradient3755"
       gradientUnits="userSpaceOnUse"
       gradientTransform="matrix(0.341035,0,0,0.341035,1.055011,1.5082821)"
       x1="-81.671494"
       y1="-10.987402"
       x2="-83.836975"
       y2="190.88261" />
    <linearGradient
       inkscape:collect="always"
       xlink:href="#linearGradient4294"
       id="linearGradient3759"
       gradientUnits="userSpaceOnUse"
       gradientTransform="matrix(0.341035,0,0,0.341035,1.0550113,1.5082821)"
       x1="-81.671494"
       y1="-10.987402"
       x2="-83.836975"
       y2="190.88261" />
    <radialGradient
       inkscape:collect="always"
       xlink:href="#linearGradient5030"
       id="radialGradient3765"
       gradientUnits="userSpaceOnUse"
       gradientTransform="matrix(1.0177515,0,0,0.1310797,127.25834,37.243336)"
       cx="-59.60252"
       cy="522.11993"
       fx="-59.60252"
       fy="522.11993"
       r="61.16605" />
    <radialGradient
       inkscape:collect="always"
       xlink:href="#linearGradient5030"
       id="radialGradient3796"
       gradientUnits="userSpaceOnUse"
       gradientTransform="matrix(1.0177515,0,0,0.1310797,127.25834,37.243336)"
       cx="-59.60252"
       cy="522.11993"
       fx="-59.60252"
       fy="522.11993"
       r="61.16605" />
    <linearGradient
       inkscape:collect="always"
       xlink:href="#linearGradient3815"
       id="linearGradient3838"
       gradientUnits="userSpaceOnUse"
       gradientTransform="matrix(-1,0,0,-1,-113.1261,122.66317)"
       x1="-79.732391"
       y1="63.816757"
       x2="-82.772545"
       y2="59.333252" />
    <linearGradient
       inkscape:collect="always"
       xlink:href="#linearGradient4294"
       id="linearGradient3841"
       gradientUnits="userSpaceOnUse"
       gradientTransform="matrix(0.341035,0,0,0.341035,-11.944989,32.258282)"
       x1="-81.671494"
       y1="-10.987402"
       x2="-83.836975"
       y2="190.88261" />
    <linearGradient
       inkscape:collect="always"
       xlink:href="#linearGradient4294"
       id="linearGradient3844"
       gradientUnits="userSpaceOnUse"
       gradientTransform="matrix(0.341035,0,0,0.341035,-11.944989,32.258282)"
       x1="-81.671494"
       y1="-10.987402"
       x2="-83.836975"
       y2="190.88261" />
    <radialGradient
       inkscape:collect="always"
       xlink:href="#linearGradient5030"
       id="radialGradient3861"
       gradientUnits="userSpaceOnUse"
       gradientTransform="matrix(1.0177515,0,0,0.1310797,127.25834,37.243336)"
       cx="-59.60252"
       cy="522.11993"
       fx="-59.60252"
       fy="522.11993"
       r="61.16605" />
    <linearGradient
       inkscape:collect="always"
       xlink:href="#linearGradient4294"
       id="linearGradient3863"
       gradientUnits="userSpaceOnUse"
       gradientTransform="matrix(0.341035,0,0,0.341035,-11.944989,32.258282)"
       x1="-81.671494"
       y1="-10.987402"
       x2="-83.836975"
       y2="190.88261" />
    <linearGradient
       inkscape:collect="always"
       xlink:href="#linearGradient4294"
       id="linearGradient3865"
       gradientUnits="userSpaceOnUse"
       gradientTransform="matrix(0.341035,0,0,0.341035,-11.944989,32.258282)"
       x1="-81.671494"
       y1="-10.987402"
       x2="-83.836975"
       y2="190.88261" />
    <linearGradient
       inkscape:collect="always"
       xlink:href="#linearGradient3815"
       id="linearGradient3867"
       gradientUnits="userSpaceOnUse"
       gradientTransform="matrix(-1,0,0,-1,-113.1261,122.66317)"
       x1="-79.732391"
       y1="63.816757"
       x2="-82.772545"
       y2="59.333252" />
    <filter
       inkscape:collect="always"
       id="filter4164"
       x="-0.1172739"
       width="1.2345478"
       y="-0.12285586"
       height="1.2457117">
      <feGaussianBlur
         inkscape:collect="always"
         stdDeviation="0.42220036"
         id="feGaussianBlur4166" />
    </filter>
    <filter
       inkscape:collect="always"
       id="filter4172">
      <feGaussianBlur
         inkscape:collect="always"
         stdDeviation="0.63876565"
         id="feGaussianBlur4174" />
    </filter>
    <radialGradient
       cx="335.28329"
       cy="342.66138"
       fx="335.28329"
       fy="342.66138"
       gradientTransform="matrix(1.365389,0.812582,-0.23374,0.392756,-33.91345,-36.51279)"
       gradientUnits="userSpaceOnUse"
       id="radialGradient2867"
       inkscape:collect="always"
       r="128.33783"
       xlink:href="#linearGradient2861" />
    <linearGradient
       id="linearGradient2861">
      <stop
         id="stop2863"
         offset="0.0000000"
         style="stop-color:#ac9877;stop-opacity:0.0000000;" />
      <stop
         id="stop2865"
         offset="1.0000000"
         style="stop-color:#ac9877;stop-opacity:1.0000000;" />
    </linearGradient>
    <radialGradient
       cx="429.06271"
       cy="193.3589"
       fx="429.06271"
       fy="193.3589"
       gradientTransform="matrix(1.326247,0.756671,-0.237671,0.416578,-86.79463,-211.5711)"
       gradientUnits="userSpaceOnUse"
       id="radialGradient2089"
       inkscape:collect="always"
       r="115.32725"
       xlink:href="#linearGradient2083" />
    <linearGradient
       id="linearGradient2083">
      <stop
         id="stop2091"
         offset="0.0000000"
         style="stop-color:#b29b7a;stop-opacity:1.0000000;" />
      <stop
         id="stop2825"
         offset="0.75000000"
         style="stop-color:#b29b7a;stop-opacity:1.0000000;" />
      <stop
         id="stop2087"
         offset="1.0000000"
         style="stop-color:#b29b7a;stop-opacity:0.0000000;" />
    </linearGradient>
    <linearGradient
       gradientUnits="userSpaceOnUse"
       id="linearGradient2849"
       inkscape:collect="always"
       x1="450.3356"
       x2="434.03668"
       xlink:href="#linearGradient2838"
       y1="174.50586"
       y2="202.84834" />
    <linearGradient
       id="linearGradient2838"
       inkscape:collect="always">
      <stop
         id="stop2840"
         offset="0"
         style="stop-color:#797265;stop-opacity:1;" />
      <stop
         id="stop2842"
         offset="1"
         style="stop-color:#797265;stop-opacity:0;" />
    </linearGradient>
    <radialGradient
       cx="334.724"
       cy="404.73734"
       fx="334.724"
       fy="404.73734"
       gradientTransform="matrix(1.423258,0.835563,-0.102514,0.174618,-104.3701,22.23215)"
       gradientUnits="userSpaceOnUse"
       id="radialGradient2857"
       inkscape:collect="always"
       r="134.42493"
       xlink:href="#linearGradient2851" />
    <linearGradient
       id="linearGradient2851">
      <stop
         id="stop2853"
         offset="0.0000000"
         style="stop-color:#ccb986;stop-opacity:0.0000000;" />
      <stop
         id="stop2859"
         offset="0.50000000"
         style="stop-color:#c3ad70;stop-opacity:1.0000000;" />
      <stop
         id="stop2855"
         offset="1.0000000"
         style="stop-color:#ccb986;stop-opacity:0.0000000;" />
    </linearGradient>
    <radialGradient
       cx="389.15314"
       cy="296.43518"
       fx="389.15314"
       fy="296.43518"
       gradientTransform="matrix(1.26176,0.69454,-0.09571303,0.17388,-73.92675,-49.29122)"
       gradientUnits="userSpaceOnUse"
       id="radialGradient2834"
       inkscape:collect="always"
       r="145.29877"
       xlink:href="#linearGradient2828" />
    <linearGradient
       id="linearGradient2828">
      <stop
         id="stop2830"
         offset="0.0000000"
         style="stop-color:#c4a361;stop-opacity:0.0000000;" />
      <stop
         id="stop2836"
         offset="0.50000000"
         style="stop-color:#c4a361;stop-opacity:1.0000000;" />
      <stop
         id="stop2832"
         offset="1"
         style="stop-color:#c4a361;stop-opacity:0;" />
    </linearGradient>
    <radialGradient
       cx="1142.9739"
       cy="629.836"
       fx="1142.9739"
       fy="629.836"
       gradientTransform="scale(1.067735,0.936562)"
       gradientUnits="userSpaceOnUse"
       id="radialGradient22276"
       inkscape:collect="always"
       r="184.27167"
       xlink:href="#linearGradient18196" />
    <linearGradient
       id="linearGradient18196">
      <stop
         id="stop18198"
         offset="0.0000000"
         style="stop-color:#ffffff;stop-opacity:0.0000000;" />
      <stop
         id="stop19932"
         offset="0.50000000"
         style="stop-color:#3f3f3f;stop-opacity:0.070588239;" />
      <stop
         id="stop19926"
         offset="0.77999997"
         style="stop-color:#000000;stop-opacity:0.32989690;" />
      <stop
         id="stop19928"
         offset="0.93000001"
         style="stop-color:#000000;stop-opacity:0.52156866;" />
      <stop
         id="stop18200"
         offset="1.0000000"
         style="stop-color:#000000;stop-opacity:0.65098041;" />
    </linearGradient>
    <linearGradient
       inkscape:collect="always"
       xlink:href="#linearGradient3815"
       id="linearGradient4441"
       gradientUnits="userSpaceOnUse"
       gradientTransform="matrix(1.3041003,0,0,-1,29.545228,117.92031)"
       x1="-79.732391"
       y1="63.816757"
       x2="-80.912842"
       y2="57.477097" />
    <linearGradient
       inkscape:collect="always"
       xlink:href="#linearGradient4294"
       id="linearGradient4445"
       gradientUnits="userSpaceOnUse"
       gradientTransform="matrix(-0.44474385,0,0,0.341035,-102.31317,27.267619)"
       x1="-81.671494"
       y1="-10.987402"
       x2="-83.836975"
       y2="190.88261" />
    <linearGradient
       inkscape:collect="always"
       xlink:href="#linearGradient4294"
       id="linearGradient4448"
       gradientUnits="userSpaceOnUse"
       gradientTransform="matrix(-0.45264939,0,0,0.34322644,-102.87899,27.171895)"
       x1="-81.671494"
       y1="-10.987402"
       x2="-83.836975"
       y2="190.88261" />
    <filter
       inkscape:collect="always"
       id="filter4537"
       x="-0.065123666"
       width="1.1302473"
       y="-0.4833623"
       height="1.9667246">
      <feGaussianBlur
         inkscape:collect="always"
         stdDeviation="1.5594728"
         id="feGaussianBlur4539" />
    </filter>
    <filter
       inkscape:collect="always"
       id="filter4570"
       x="-0.06943741"
       width="1.1388748"
       y="-0.10463672"
       height="1.2092734">
      <feGaussianBlur
         inkscape:collect="always"
         stdDeviation="1.2845965"
         id="feGaussianBlur4572" />
    </filter>
    <filter
       inkscape:collect="always"
       id="filter4578"
       x="-0.31478261"
       width="1.6295652"
       y="-0.40642818"
       height="1.8128564">
      <feGaussianBlur
         inkscape:collect="always"
         stdDeviation="8.1387632"
         id="feGaussianBlur4580" />
    </filter>
  </defs>
  <sodipodi:namedview
     id="base"
     pagecolor="#3f3f3f"
     bordercolor="#666666"
     borderopacity="1.0"
     inkscape:pageopacity="0"
     inkscape:pageshadow="2"
     inkscape:zoom="2.9058036"
     inkscape:cx="47.662929"
     inkscape:cy="31.655308"
     inkscape:document-units="px"
     inkscape:current-layer="layer1"
     showguides="true"
     inkscape:guide-bbox="true"
     inkscape:window-width="1538"
     inkscape:window-height="878"
     inkscape:window-x="54"
     inkscape:window-y="-8"
     showborder="false"
     showgrid="false"
     inkscape:showpageshadow="false"
     width="48px"
     height="48px"
     inkscape:window-maximized="1" />
  <metadata
     id="metadata7">
    <rdf:RDF>
      <cc:Work
         rdf:about="">
        <dc:format>image/svg+xml</dc:format>
        <dc:type
           rdf:resource="http://purl.org/dc/dcmitype/StillImage" />
        <dc:title></dc:title>
      </cc:Work>
    </rdf:RDF>
  </metadata>
  <g
     inkscape:label="Layer 1"
     inkscape:groupmode="layer"
     id="layer1"
     transform="translate(110.04367,-53.811123)">
    <g
       id="g4562"
       style="opacity:0.59061944;fill:#000000;stroke:none;filter:url(#filter4570)"
       transform="translate(2.2369027,-12.152097)"
       inkscape:export-filename="C:\Users\siovene\Downloads\astrobin-logo.png"
       inkscape:export-xdpi="68.507843"
       inkscape:export-ydpi="68.507843">
      <path
         sodipodi:nodetypes="ccccc"
         id="path3786-1"
         d="m -83.995843,77.911599 -18.278587,-4.21231 -0.11527,24.395368 18.34611,4.551773 0.04774,-24.734831 z"
         style="fill:#000000;fill-opacity:1;fill-rule:nonzero;stroke:none"
         inkscape:connector-curvature="0" />
      <path
         sodipodi:nodetypes="ccccc"
         id="path3784-7"
         d="m -83.487028,77.915279 25.334467,-4.640165 0.163013,24.826141 -25.49748,4.638005 0,-24.823981 z"
         style="fill:#000000;fill-opacity:1;fill-rule:nonzero;stroke:none"
         inkscape:connector-curvature="0" />
    </g>
    <g
       id="g6343"
       inkscape:groupmode="layer"
       inkscape:label="Layer 1"
       transform="matrix(0.6454805,0,0,0.6454805,234.71183,124.03662)" />
    <g
       id="g9086"
       inkscape:groupmode="layer"
       inkscape:label="Layer 1"
       transform="matrix(0.6454805,0,0,0.6454805,180.49147,34.726518)" />
    <path
       inkscape:connector-curvature="0"
       style="fill:#b1883f;fill-opacity:1;fill-rule:evenodd;stroke:#746137;stroke-width:1px;stroke-linecap:butt;stroke-linejoin:round;stroke-opacity:1"
       d="m -73.961493,54.489535 c 0,0 8.802684,5.434951 8.802684,5.434951 l 18.623321,5.624741 c 0,0 -9.568092,-6.853885 -9.568092,-6.853885 0,0 -17.857913,-4.205807 -17.857913,-4.205807 z"
       id="path3823"
       sodipodi:nodetypes="cccsc"
       inkscape:transform-center-y="-8.329675"
       inkscape:transform-center-x="-6.026071"
       inkscape:export-filename="C:\Users\siovene\Downloads\astrobin-logo.png"
       inkscape:export-xdpi="68.507843"
       inkscape:export-ydpi="68.507843" />
    <path
       inkscape:connector-curvature="0"
       style="fill:#82642f;fill-opacity:1;fill-rule:nonzero;stroke:#746137;stroke-width:1;stroke-linecap:square;stroke-linejoin:round;stroke-miterlimit:4;stroke-opacity:1;stroke-dashoffset:0"
       d="m -74.824841,54.311123 -25.674299,4.711844 18.900763,4.23637 25.652515,-4.555652 -18.878979,-4.392562 z"
       id="path3788"
       sodipodi:nodetypes="ccccc"
       inkscape:export-filename="C:\Users\siovene\Downloads\astrobin-logo.png"
       inkscape:export-xdpi="68.507843"
       inkscape:export-ydpi="68.507843" />
    <path
       inkscape:connector-curvature="0"
       style="fill:url(#linearGradient4441);fill-opacity:1;fill-rule:evenodd;stroke:none"
       d="m -98.63198,59.313708 c 0,0 23.975593,-4.24264 23.975593,-4.24264 l 15.569273,3.660533 c -18.583429,4.5 -23.243612,-1.542893 -39.544866,0.582107 z"
       id="path3813"
       sodipodi:nodetypes="cccc"
       inkscape:export-filename="C:\Users\siovene\Downloads\astrobin-logo.png"
       inkscape:export-xdpi="68.507843"
       inkscape:export-ydpi="68.507843" />
    <g
       transform="matrix(0.01361052,-0.05458069,0.05458069,0.01361052,-100.60541,75.453497)"
       id="g4274"
       inkscape:export-filename="C:\Users\siovene\Downloads\astrobin-logo.png"
       inkscape:export-xdpi="68.507843"
       inkscape:export-ydpi="68.507843">
      <g
         id="g2870">
        <path
           transform="matrix(0.757276,0.437214,-0.45431,0.786887,-286.1225,-691.8792)"
           style="fill:#e7c278;fill-opacity:1;fill-rule:nonzero;stroke:none"
           sodipodi:type="arc"
           sodipodi:ry="172.42354"
           sodipodi:rx="196.59508"
           sodipodi:cy="589.88031"
           sodipodi:cx="1220.3934"
           id="path2093"
           d="m 1416.9885,589.88031 c 0,95.22689 -88.0186,172.42354 -196.5951,172.42354 -108.5764,0 -196.595,-77.19665 -196.595,-172.42354 0,-95.22689 88.0186,-172.42354 196.595,-172.42354 108.5765,0 196.5951,77.19665 196.5951,172.42354 z" />
        <path
           inkscape:connector-curvature="0"
           style="fill:url(#radialGradient2867);fill-opacity:1;fill-rule:evenodd;stroke:none"
           sodipodi:nodetypes="ccc"
           id="path20317"
           d="M 202.71947,299.44658 C 208.38996,422.54373 348.39642,503.86621 459.39513,447.27144 365.21205,418.42218 272.86092,365.7725 202.71947,299.44658 z" />
        <path
           inkscape:connector-curvature="0"
           style="fill:url(#radialGradient2089);fill-opacity:1;fill-rule:nonzero;stroke:none"
           sodipodi:nodetypes="ccccc"
           id="rect9686"
           d="m 377.8782,147.0649 c 63.94173,9.46511 100.84101,40.67154 125.78274,72.63665 14.47269,17.97554 27.18507,45.09582 30.95831,67.93886 -80.40011,-14.99392 -172.4869,-64.26818 -230.65451,-133.48408 22.79575,-7.37192 47.94596,-10.62327 73.91346,-7.09143 z" />
        <path
           inkscape:connector-curvature="0"
           style="fill:url(#linearGradient2849);fill-opacity:1;fill-rule:evenodd;stroke:none"
           sodipodi:nodetypes="ccc"
           id="path11205"
           d="m 376.79648,146.92869 c 34.9243,39.03186 83.74885,65.97166 128.658,75.06979 -36.83547,-47.56424 -81.5228,-69.48569 -128.658,-75.06979 z" />
        <path
           inkscape:connector-curvature="0"
           style="fill:url(#radialGradient2857);fill-opacity:1;fill-rule:nonzero;stroke:none"
           sodipodi:nodetypes="ccccc"
           id="rect17282"
           d="m 202.58476,285.35277 c 77.21997,71.75442 165.61663,125.69618 268.7412,155.12648 -3.56217,2.56612 -7.56823,4.50879 -11.60182,6.61914 -96.0534,-28.95836 -183.90462,-79.61818 -257.06288,-148.232 -0.26992,-5.57414 -0.19828,-8.5328 -0.0765,-13.51362 z" />
        <path
           inkscape:connector-curvature="0"
           style="fill:url(#radialGradient2834);fill-opacity:1;fill-rule:nonzero;stroke:none"
           sodipodi:nodetypes="ccccc"
           id="rect12729"
           d="m 248.88967,186.52076 c 66.97175,74.01999 197.13138,152.32672 285.12734,164.74847 -0.588,2.44976 -1.23535,4.86525 -1.88263,7.28079 -88.66149,-12.24344 -221.36272,-91.45503 -288.71489,-166.68993 1.80758,-1.7889 3.59141,-3.59153 5.47018,-5.33933 z" />
      </g>
      <g
         id="g1346">
        <path
           transform="matrix(0.757276,0.437214,-0.45431,0.786887,-286.1225,-691.8792)"
           style="fill:url(#radialGradient22276);fill-opacity:1;fill-rule:nonzero;stroke:none"
           sodipodi:type="arc"
           sodipodi:ry="172.42354"
           sodipodi:rx="196.59508"
           sodipodi:cy="589.88031"
           sodipodi:cx="1220.3934"
           id="path8162"
           d="m 1416.9885,589.88031 c 0,95.22689 -88.0186,172.42354 -196.5951,172.42354 -108.5764,0 -196.595,-77.19665 -196.595,-172.42354 0,-95.22689 88.0186,-172.42354 196.595,-172.42354 108.5765,0 196.5951,77.19665 196.5951,172.42354 z" />
      </g>
      <g
         transform="matrix(0.778907,0.449703,-0.449703,0.778907,-335.4228,-714.2288)"
         id="g16666">
        <path
           inkscape:connector-curvature="0"
           style="fill:#ada293;fill-opacity:1;fill-rule:nonzero;stroke:none"
           id="path30933"
           d="M 1073.3438,517.75 C 918.35854,530.11674 809.5,559.11597 809.5,592.875 c 0,44.98832 193.3104,81.5 431.5,81.5 238.1896,2e-5 431.5313,-36.51171 431.5312,-81.5 1e-4,-32.91429 -103.7043,-61.23279 -252.5312,-74.09375 0.2794,0.57029 0.4774,1.1766 0.75,1.75 143.2815,12.74618 242.7812,40.18461 242.7812,72.0625 1e-4,43.99854 -189.0818,79.71875 -422.0312,79.71875 -232.9494,2e-5 -422,-35.7202 -422,-79.71875 0,-32.64466 104.17621,-60.68148 253.0312,-73 0.29,-0.60342 0.5157,-1.24478 0.8126,-1.84375 z" />
        <path
           inkscape:connector-curvature="0"
           style="fill:#ada393;fill-opacity:1;fill-rule:nonzero;stroke:none"
           id="path31697"
           d="m 1072.3125,520.0625 c -147.51683,12.30524 -250.6875,40.13124 -250.6875,72.53125 0,43.77755 188.0956,79.3125 419.875,79.3125 231.7794,2e-5 419.9062,-35.53493 419.9062,-79.3125 0,-31.63536 -98.4752,-58.89822 -240.4374,-71.625 1.4053,2.97912 2.7803,5.97044 4,9.03125 116.4834,12.21363 195.4687,35.66378 195.4687,62.59375 0,39.50496 -169.7792,71.5625 -378.9375,71.5625 -209.1583,-10e-6 -378.90625,-32.05752 -378.90625,-71.5625 10e-6,-27.70702 83.65588,-51.70278 205.68745,-63.59375 1.2331,-3.0426 2.6291,-5.99545 4.0313,-8.9375 z" />
        <path
           inkscape:connector-curvature="0"
           style="fill:#343423;fill-opacity:0.72972969;fill-rule:nonzero;stroke:none"
           id="path31705"
           d="m 1061.375,550.09375 c -65.97591,9.98773 -108.34376,25.29954 -108.34375,42.5 0,30.07579 129.23305,54.46875 288.46875,54.46875 159.2357,-10e-6 288.5,-24.39294 288.5,-54.46875 0,-16.28705 -38.1093,-30.85681 -98.1562,-40.84375 0.9533,3.96061 1.8108,7.96376 2.4687,12.03125 33.2633,7.9267 53.2813,17.92091 53.2813,28.8125 -1e-4,25.65584 -110.2594,46.46875 -246.0938,46.46875 -135.8344,-10e-6 -246.0625,-20.81289 -246.0625,-46.46875 0,-11.9565 24.1536,-22.82321 63.4687,-31.0625 0.6948,-3.85937 1.5111,-7.68026 2.4688,-11.4375 z" />
        <path
           inkscape:connector-curvature="0"
           style="fill:#d8d4c1;fill-opacity:1;fill-rule:nonzero;stroke:none"
           id="path31701"
           d="m 1067.4375,530.84375 c -116.77618,11.7775 -196.34373,35.01422 -196.34375,61.75 0,38.62097 165.92825,69.96875 370.40625,69.96875 204.478,-10e-6 370.4374,-31.34776 370.4375,-69.96875 0,-25.93426 -75.0132,-48.54034 -186.0937,-60.625 2.4557,6.41319 4.3764,13.0365 6,19.78125 60.0469,9.98695 98.1562,24.55672 98.1562,40.84375 10e-5,30.07579 -129.2643,54.46875 -288.5,54.46875 -159.2357,-10e-6 -288.46875,-24.39294 -288.46875,-54.46875 -10e-6,-17.20047 42.36784,-32.51228 108.34375,-42.5 1.6764,-6.57673 3.633,-13.03487 6.0625,-19.25 z" />
      </g>
    </g>
    <path
       inkscape:connector-curvature="0"
       style="fill:#c7a465;fill-opacity:1;fill-rule:nonzero;stroke:#746137;stroke-width:1;stroke-linecap:square;stroke-linejoin:round;stroke-miterlimit:4;stroke-opacity:1;stroke-dashoffset:0"
       d="m -81.952157,63.524502 -18.278583,-4.21231 -0.11527,24.395368 18.346106,4.551777 0.04774,-24.734835 z"
       id="path3786"
       sodipodi:nodetypes="ccccc"
       inkscape:export-filename="C:\Users\siovene\Downloads\astrobin-logo.png"
       inkscape:export-xdpi="68.507843"
       inkscape:export-ydpi="68.507843" />
    <path
       inkscape:connector-curvature="0"
       style="opacity:0.81171546;fill:url(#linearGradient4445);fill-opacity:1;fill-rule:evenodd;stroke:none"
       d="m -82.61565,63.85196 c 0,0 0,12.886349 0,12.886349 -6.003495,-18.914214 -17.314598,-12.17854 -16.853528,-16.774734 l 16.853528,3.888385 z"
       id="path3794"
       sodipodi:nodetypes="cccc"
       inkscape:export-filename="C:\Users\siovene\Downloads\astrobin-logo.png"
       inkscape:export-xdpi="68.507843"
       inkscape:export-ydpi="68.507843" />
    <path
       inkscape:connector-curvature="0"
       style="fill:#c7a465;fill-opacity:1;fill-rule:nonzero;stroke:#746137;stroke-width:1;stroke-linecap:square;stroke-linejoin:round;stroke-miterlimit:4;stroke-opacity:1;stroke-dashoffset:0"
       d="m -81.443342,63.528182 25.334467,-4.640165 0.163013,24.826141 -25.49748,4.63801 0,-24.823986 z"
       id="path3784"
       sodipodi:nodetypes="ccccc"
       inkscape:export-filename="C:\Users\siovene\Downloads\astrobin-logo.png"
       inkscape:export-xdpi="68.507843"
       inkscape:export-ydpi="68.507843" />
    <path
       inkscape:connector-curvature="0"
       style="opacity:0.81171546;fill:url(#linearGradient4448);fill-opacity:1;fill-rule:evenodd;stroke:none"
       d="m -80.932552,64.002655 0,12.969154 c 4.34948,3.335643 24.636469,-21.610985 24.380617,1.670604 l -0.01035,-19.056342 -24.370202,4.416584 z"
       id="path3792"
       sodipodi:nodetypes="ccccc"
       inkscape:export-filename="C:\Users\siovene\Downloads\astrobin-logo.png"
       inkscape:export-xdpi="68.507843"
       inkscape:export-ydpi="68.507843" />
    <path
       inkscape:connector-curvature="0"
       style="fill:#b1883f;fill-opacity:1;fill-rule:evenodd;stroke:#746137;stroke-width:1px;stroke-linecap:butt;stroke-linejoin:round;stroke-opacity:1"
       d="m -90.011544,72.895758 c 0,0 8.161803,-9.155776 8.161803,-9.155776 l -19.168129,-4.419418 c 0,0 -6.59001,8.776335 -6.59001,8.776335 0,0 17.596336,4.798859 17.596336,4.798859 z"
       id="path3790"
       sodipodi:nodetypes="cccsc"
       inkscape:transform-center-x="-10.429825"
       inkscape:transform-center-y="-8.3223685"
       inkscape:export-filename="C:\Users\siovene\Downloads\astrobin-logo.png"
       inkscape:export-xdpi="68.507843"
       inkscape:export-ydpi="68.507843" />
    <g
       id="g4470"
       transform="translate(-0.17206944,59.536026)"
       inkscape:export-filename="C:\Users\siovene\Downloads\astrobin-logo.png"
       inkscape:export-xdpi="68.507843"
       inkscape:export-ydpi="68.507843">
      <g
         style="opacity:0.75;fill:#000000;filter:url(#filter4172)"
         transform="translate(0.77997265,-59.220027)"
         id="g3993">
        <text
           transform="matrix(1.0471645,-0.18658356,0,0.9549598,0,0)"
           sodipodi:linespacing="125%"
           id="text3995"
           y="75.018822"
           x="-74.692383"
           style="font-size:28.31733322px;font-style:normal;font-variant:normal;font-weight:bold;font-stretch:normal;text-align:start;line-height:125%;letter-spacing:0px;word-spacing:0px;writing-mode:lr-tb;text-anchor:start;fill:#000000;fill-opacity:1;stroke:none;font-family:Droid Sans;-inkscape-font-specification:Droid Sans Bold"
           xml:space="preserve"><tspan
             y="75.018822"
             x="-74.692383"
             id="tspan3997"
             sodipodi:role="line">A</tspan></text>
        <g
           id="text3999"
           style="font-size:23.92544556px;font-style:normal;font-variant:normal;font-weight:bold;font-stretch:normal;text-align:start;line-height:125%;letter-spacing:0px;word-spacing:0px;writing-mode:lr-tb;text-anchor:start;fill:#000000;fill-opacity:1;stroke:none;font-family:Droid Sans;-inkscape-font-specification:Droid Sans Bold">
          <path
             inkscape:connector-curvature="0"
             id="path4050"
             style="fill:#000000;font-family:Droid Sans;-inkscape-font-specification:Droid Sans Bold"
             d="m -44.69362,78.990151 c -1.1e-5,0.685368 -0.124622,1.285061 -0.373835,1.799082 -0.249234,0.514025 -0.603598,0.942377 -1.063094,1.285058 -0.459514,0.342683 -1.016372,0.599694 -1.670575,0.771035 -0.654219,0.171341 -1.386312,0.257011 -2.196282,0.257011 -0.428357,0 -0.825556,-0.01363 -1.191599,-0.04089 -0.36605,-0.02726 -0.712626,-0.07204 -1.039729,-0.134347 -0.327108,-0.06231 -0.642531,-0.140188 -0.94627,-0.233647 -0.303743,-0.09346 -0.611377,-0.210282 -0.922905,-0.35047 l 0,-2.943951 c 0.327104,0.163556 0.671733,0.311532 1.033888,0.443929 0.36215,0.132403 0.722355,0.247279 1.080617,0.344629 0.358255,0.09736 0.706778,0.173291 1.04557,0.227806 0.338783,0.05452 0.652259,0.08178 0.940428,0.08178 0.319312,3e-6 0.5919,-0.0292 0.817765,-0.08762 0.225852,-0.05841 0.410822,-0.140186 0.554911,-0.24533 0.144076,-0.105138 0.249217,-0.22975 0.315424,-0.373835 0.06619,-0.144079 0.09929,-0.297896 0.0993,-0.461452 -7e-6,-0.16355 -0.02532,-0.309579 -0.07594,-0.438088 -0.05063,-0.128502 -0.165507,-0.264796 -0.344629,-0.408883 -0.179136,-0.144077 -0.441988,-0.30763 -0.788558,-0.490658 -0.346582,-0.183019 -0.811929,-0.40693 -1.396041,-0.671735 -0.568545,-0.257006 -1.06115,-0.51207 -1.477817,-0.765194 -0.416673,-0.253111 -0.759354,-0.535434 -1.028046,-0.84697 -0.268696,-0.311522 -0.469243,-0.667833 -0.601641,-1.068935 -0.132401,-0.401085 -0.198601,-0.878114 -0.1986,-1.431087 -1e-6,-0.607472 0.116822,-1.139018 0.350471,-1.59464 0.233645,-0.4556 0.564644,-0.835276 0.992999,-1.139029 0.42835,-0.303728 0.94432,-0.531534 1.547911,-0.683417 0.603583,-0.151858 1.275317,-0.227793 2.015205,-0.227806 0.778816,1.3e-5 1.518697,0.08958 2.219645,0.268694 0.700932,0.179142 1.421343,0.447836 2.161235,0.806082 l -1.074776,2.523387 c -0.591915,-0.280367 -1.156561,-0.510119 -1.693941,-0.689259 -0.537395,-0.179119 -1.074782,-0.268683 -1.612163,-0.268694 -0.482876,1.1e-5 -0.831399,0.08568 -1.04557,0.257012 -0.214181,0.171351 -0.32127,0.404998 -0.321265,0.700941 -5e-6,0.155774 0.02725,0.294015 0.08178,0.414723 0.05451,0.120727 0.163547,0.245338 0.327105,0.373835 0.163548,0.128515 0.3933,0.268703 0.689259,0.420564 0.295946,0.151879 0.681463,0.33685 1.156552,0.554912 0.552957,0.241443 1.051403,0.480931 1.49534,0.718464 0.443921,0.237548 0.825544,0.508189 1.14487,0.811923 0.319308,0.303747 0.564637,0.658112 0.735988,1.063094 0.171331,0.404993 0.257001,0.895651 0.257012,1.471975 z" />
          <path
             inkscape:connector-curvature="0"
             id="path4052"
             style="fill:#000000;font-family:Droid Sans;-inkscape-font-specification:Droid Sans Bold"
             d="m -36.597754,80.263527 c 0.350463,3e-6 0.683409,-0.03894 0.998841,-0.116823 0.315414,-0.07788 0.636679,-0.175233 0.963793,-0.292059 l 0,2.651893 c -0.334903,0.171341 -0.749625,0.313476 -1.24417,0.426405 -0.49456,0.11293 -1.033894,0.169394 -1.618005,0.169394 -0.568546,0 -1.098145,-0.0662 -1.588799,-0.198599 -0.490663,-0.1324 -0.915121,-0.3641 -1.273376,-0.6951 -0.358261,-0.330999 -0.640584,-0.774928 -0.84697,-1.331788 -0.20639,-0.556856 -0.309584,-1.255849 -0.309582,-2.096981 l 0,-6.296785 -1.705622,0 0,-1.507022 1.962634,-1.1916 1.028046,-2.757033 2.278058,0 0,2.780398 3.177598,0 0,2.675257 -3.177598,0 0,6.296785 c -6e-6,0.506239 0.124606,0.880074 0.373835,1.121505 0.249217,0.241438 0.576322,0.362156 0.981317,0.362153 z" />
          <path
             inkscape:connector-curvature="0"
             id="path4054"
             style="fill:#000000;font-family:Droid Sans;-inkscape-font-specification:Droid Sans Bold"
             d="m -25.184103,69.562498 c 0.09345,1.3e-5 0.196644,0.002 0.309582,0.0058 0.112921,0.0039 0.221956,0.0117 0.327106,0.02336 0.105132,0.0117 0.202485,0.02338 0.292059,0.03505 0.08956,0.0117 0.157702,0.02532 0.204441,0.04089 l 0,3.341151 c -0.06232,-0.01557 -0.147986,-0.03114 -0.257012,-0.04673 -0.109044,-0.01557 -0.223921,-0.0292 -0.344629,-0.04089 -0.120727,-0.01167 -0.239497,-0.01946 -0.356312,-0.02336 -0.116832,-0.0039 -0.214185,-0.0058 -0.292058,-0.0058 -0.459514,1e-5 -0.882025,0.05842 -1.267535,0.175235 -0.385524,0.116833 -0.716524,0.305697 -0.992999,0.566594 -0.276488,0.260914 -0.490665,0.603596 -0.642529,1.028046 -0.151876,0.424466 -0.227811,0.94433 -0.227806,1.559593 l 0,6.647255 -3.563116,0 0,-13.060863 2.698622,0 0.525706,1.962634 0.175235,0 c 0.186912,-0.334882 0.389406,-0.638623 0.607482,-0.911223 0.218064,-0.272575 0.461446,-0.504275 0.730147,-0.695099 0.268687,-0.190799 0.572428,-0.338775 0.911223,-0.443929 0.33878,-0.105128 0.726244,-0.157699 1.162393,-0.157712 z" />
          <path
             inkscape:connector-curvature="0"
             id="path4056"
             style="fill:#000000;font-family:Droid Sans;-inkscape-font-specification:Droid Sans Bold"
             d="m -18.65367,76.314894 c -5e-6,1.30064 0.183018,2.280009 0.54907,2.93811 0.366041,0.658109 0.96184,0.987161 1.787399,0.987159 0.817756,2e-6 1.409661,-0.330997 1.775716,-0.993 0.366038,-0.661995 0.549061,-1.639417 0.549071,-2.932269 -10e-6,-1.300627 -0.183033,-2.272207 -0.549071,-2.914745 -0.366055,-0.642519 -0.965748,-0.963783 -1.799081,-0.963794 -0.81777,1.1e-5 -1.407728,0.321275 -1.769875,0.963794 -0.362158,0.642538 -0.543234,1.614118 -0.543229,2.914745 z m 8.294466,0 c -1.4e-5,1.090358 -0.138255,2.056098 -0.414724,2.897222 -0.276494,0.841132 -0.673694,1.54986 -1.191599,2.126187 -0.517928,0.57633 -1.148775,1.014418 -1.89254,1.314264 -0.743785,0.299847 -1.579072,0.44977 -2.505864,0.44977 -0.864499,0 -1.658898,-0.149923 -2.383198,-0.44977 -0.72431,-0.299846 -1.349315,-0.737934 -1.875017,-1.314264 -0.525708,-0.576327 -0.936537,-1.285055 -1.232487,-2.126187 -0.295955,-0.841124 -0.443931,-1.806864 -0.44393,-2.897222 -10e-7,-1.082556 0.13824,-2.044402 0.414724,-2.885539 0.27648,-0.841119 0.673679,-1.5479 1.191599,-2.120346 0.517914,-0.572423 1.146813,-1.006617 1.886699,-1.302582 0.739877,-0.29594 1.577111,-0.443916 2.511705,-0.443929 0.864485,1.3e-5 1.658884,0.147989 2.383198,0.443929 0.724295,0.295965 1.3493,0.730159 1.875017,1.302582 0.525693,0.572446 0.936522,1.279227 1.232487,2.120346 0.29594,0.841137 0.443916,1.802983 0.44393,2.885539 z" />
          <path
             inkscape:connector-curvature="0"
             id="path4058"
             style="fill:#000000;font-family:Droid Sans;-inkscape-font-specification:Droid Sans Bold"
             d="m -6.9946896,65.7891 5.0000443,0 c 1.07476765,1.7e-5 2.01714266,0.07595 2.82712785,0.227806 0.80996525,0.151887 1.48754065,0.397216 2.03272825,0.735988 0.5451636,0.338803 0.9559924,0.782732 1.2324876,1.331787 0.2764687,0.549085 0.4147096,1.224713 0.4147233,2.026887 -1.37e-5,0.482883 -0.058425,0.9346 -0.1752352,1.355152 -0.1168368,0.420576 -0.2881778,0.790516 -0.5140233,1.109823 -0.2258714,0.319328 -0.5004063,0.586074 -0.8236054,0.800241 -0.3232234,0.214186 -0.695111,0.356321 -1.1156641,0.426406 l 0,0.116823 c 0.4283413,0.09347 0.8274877,0.227815 1.1974405,0.403041 0.3699284,0.175244 0.6931397,0.416679 0.9696348,0.724306 0.2764687,0.307642 0.494539,0.695106 0.6542114,1.162393 0.1596447,0.4673 0.239474,1.03584 0.2394881,1.705623 -1.41e-5,0.778827 -0.136308,1.473926 -0.4088821,2.085298 -0.2726015,0.611379 -0.6639597,1.129296 -1.1740758,1.553753 -0.5101412,0.424459 -1.1293049,0.749617 -1.8574931,0.975475 -0.72820955,0.225859 -1.55181415,0.338788 -2.47081631,0.338788 l -6.02809079,0 z m 3.6215274,6.764079 1.8808578,0 c 0.4517093,1e-5 0.82943812,-0.04088 1.13318761,-0.122665 0.30373192,-0.08177 0.54906095,-0.20443 0.73598782,-0.367994 0.18690784,-0.163542 0.32125469,-0.367983 0.40304096,-0.613323 0.0817664,-0.245318 0.12265459,-0.531535 0.12266464,-0.858653 C 0.90256658,69.936346 0.69812572,69.467105 0.28925344,69.182822 -0.11963771,68.898565 -0.7680073,68.75643 -1.6558573,68.756416 l -1.7173049,0 z m 0,2.873857 0,4.450974 2.1261871,0 c 0.47507369,3e-6 0.87422013,-0.05452 1.19744049,-0.163553 0.32320217,-0.109032 0.58410764,-0.264796 0.78271721,-0.467294 0.19858982,-0.20249 0.3407249,-0.447819 0.4264056,-0.735988 0.08566,-0.28816 0.1284954,-0.607477 0.1285059,-0.957952 C 1.2880836,77.233911 1.2452484,76.9438 1.1595882,76.682888 1.0739075,76.421989 0.9278783,76.198077 0.72150026,76.011153 0.51510247,75.824243 0.24446172,75.68016 -0.09042282,75.578906 -0.42532547,75.477667 -0.84199542,75.427043 -1.3404339,75.427036 z" />
          <path
             sodipodi:nodetypes="ccccc"
             inkscape:connector-curvature="0"
             id="path4060"
             style="fill:#000000;font-family:Droid Sans;-inkscape-font-specification:Droid Sans Bold"
             d="m 11.66202,82.86869 -3.5631159,0 0,-13.060863 3.5631159,0 z" />
          <path
             inkscape:connector-curvature="0"
             id="path4062"
             style="fill:#000000;font-family:Droid Sans;-inkscape-font-specification:Droid Sans Bold"
             d="m 26.720567,82.86869 -3.563115,0 0,-7.628572 c -10e-6,-0.942367 -0.142145,-1.649148 -0.426406,-2.120346 -0.284279,-0.471177 -0.737943,-0.706771 -1.360993,-0.706782 -0.467301,1.1e-5 -0.856713,0.09347 -1.168235,0.280377 -0.311535,0.186927 -0.558812,0.463409 -0.741829,0.829446 -0.183029,0.366056 -0.313482,0.817773 -0.391358,1.355153 -0.07789,0.537395 -0.116829,1.152665 -0.116824,1.84581 l 0,6.144914 -3.563116,0 0,-13.060863 2.721987,0 0.478976,1.670576 0.1986,0 c 0.186912,-0.334883 0.414718,-0.623047 0.683418,-0.864494 0.268687,-0.241423 0.562693,-0.440022 0.882017,-0.5958 0.31931,-0.155751 0.658098,-0.270628 1.016364,-0.344629 0.35825,-0.07398 0.724297,-0.110969 1.09814,-0.110982 0.638626,1.3e-5 1.218848,0.09152 1.74067,0.274535 0.5218,0.183036 0.969623,0.469253 1.34347,0.858652 0.373823,0.389424 0.661987,0.885923 0.864493,1.4895 0.202481,0.603598 0.303728,1.325955 0.303741,2.167075 z" />
        </g>
      </g>
      <g
         transform="translate(0,-60)"
         id="g4455">
        <g
           id="g3987"
           style="fill:#3092cf;fill-opacity:1">
          <g
             transform="matrix(1.0471645,-0.18658356,0,0.9549598,0,0)"
             style="font-size:28.31733322px;font-style:normal;font-variant:normal;font-weight:bold;font-stretch:normal;text-align:start;line-height:125%;letter-spacing:0px;word-spacing:0px;writing-mode:lr-tb;text-anchor:start;fill:#3092cf;fill-opacity:1;stroke:none;font-family:Droid Sans;-inkscape-font-specification:Droid Sans Bold"
             id="text3211">
            <path
               inkscape:connector-curvature="0"
               d="m -60.616677,75.018822 -1.382682,-4.811735 -6.968719,0 -1.396509,4.811735 -4.327796,0 6.567741,-20.297776 5.240366,0 6.595394,20.297776 z m -2.378214,-8.406709 -1.299721,-4.424583 c -0.05532,-0.165909 -0.138279,-0.437836 -0.248883,-0.815782 -0.110624,-0.37792 -0.228152,-0.795028 -0.352584,-1.251328 -0.124451,-0.45627 -0.241979,-0.914859 -0.352584,-1.375769 -0.110624,-0.460877 -0.188976,-0.852637 -0.235056,-1.17528 -0.03688,0.202811 -0.08527,0.442476 -0.145181,0.718995 -0.05993,0.276553 -0.12906,0.56922 -0.207403,0.878003 -0.07836,0.308815 -0.159017,0.619918 -0.241969,0.933311 -0.08297,0.313422 -0.161322,0.608394 -0.235056,0.884917 -0.07375,0.27655 -0.140581,0.520823 -0.200489,0.732821 -0.05992,0.212024 -0.103709,0.368728 -0.131355,0.470112 l -1.285894,4.424583 z"
               style="fill:#3092cf;fill-opacity:1"
               id="path4032" />
          </g>
          <g
             style="font-size:23.92544556px;font-style:normal;font-variant:normal;font-weight:bold;font-stretch:normal;text-align:start;line-height:125%;letter-spacing:0px;word-spacing:0px;writing-mode:lr-tb;text-anchor:start;fill:#3092cf;fill-opacity:1;stroke:none;font-family:Droid Sans;-inkscape-font-specification:Droid Sans Bold"
             id="text3983">
            <path
               inkscape:connector-curvature="0"
               d="m -44.69362,78.990151 c -1.1e-5,0.685368 -0.124622,1.285061 -0.373835,1.799082 -0.249234,0.514025 -0.603598,0.942377 -1.063094,1.285058 -0.459514,0.342683 -1.016372,0.599694 -1.670575,0.771035 -0.654219,0.171341 -1.386312,0.257011 -2.196282,0.257011 -0.428357,0 -0.825556,-0.01363 -1.191599,-0.04089 -0.36605,-0.02726 -0.712626,-0.07204 -1.039729,-0.134347 -0.327108,-0.06231 -0.642531,-0.140188 -0.94627,-0.233647 -0.303743,-0.09346 -0.611377,-0.210282 -0.922905,-0.35047 l 0,-2.943951 c 0.327104,0.163556 0.671733,0.311532 1.033888,0.443929 0.36215,0.132403 0.722355,0.247279 1.080617,0.344629 0.358255,0.09736 0.706778,0.173291 1.04557,0.227806 0.338783,0.05452 0.652259,0.08178 0.940428,0.08178 0.319312,3e-6 0.5919,-0.0292 0.817765,-0.08762 0.225852,-0.05841 0.410822,-0.140186 0.554911,-0.24533 0.144076,-0.105138 0.249217,-0.22975 0.315424,-0.373835 0.06619,-0.144079 0.09929,-0.297896 0.0993,-0.461452 -7e-6,-0.16355 -0.02532,-0.309579 -0.07594,-0.438088 -0.05063,-0.128502 -0.165507,-0.264796 -0.344629,-0.408883 -0.179136,-0.144077 -0.441988,-0.30763 -0.788558,-0.490658 -0.346582,-0.183019 -0.811929,-0.40693 -1.396041,-0.671735 -0.568545,-0.257006 -1.06115,-0.51207 -1.477817,-0.765194 -0.416673,-0.253111 -0.759354,-0.535434 -1.028046,-0.84697 -0.268696,-0.311522 -0.469243,-0.667833 -0.601641,-1.068935 -0.132401,-0.401085 -0.198601,-0.878114 -0.1986,-1.431087 -1e-6,-0.607472 0.116822,-1.139018 0.350471,-1.59464 0.233645,-0.4556 0.564644,-0.835276 0.992999,-1.139029 0.42835,-0.303728 0.94432,-0.531534 1.547911,-0.683417 0.603583,-0.151858 1.275317,-0.227793 2.015205,-0.227806 0.778816,1.3e-5 1.518697,0.08958 2.219645,0.268694 0.700932,0.179142 1.421343,0.447836 2.161235,0.806082 l -1.074776,2.523387 c -0.591915,-0.280367 -1.156561,-0.510119 -1.693941,-0.689259 -0.537395,-0.179119 -1.074782,-0.268683 -1.612163,-0.268694 -0.482876,1.1e-5 -0.831399,0.08568 -1.04557,0.257012 -0.214181,0.171351 -0.32127,0.404998 -0.321265,0.700941 -5e-6,0.155774 0.02725,0.294015 0.08178,0.414723 0.05451,0.120727 0.163547,0.245338 0.327105,0.373835 0.163548,0.128515 0.3933,0.268703 0.689259,0.420564 0.295946,0.151879 0.681463,0.33685 1.156552,0.554912 0.552957,0.241443 1.051403,0.480931 1.49534,0.718464 0.443921,0.237548 0.825544,0.508189 1.14487,0.811923 0.319308,0.303747 0.564637,0.658112 0.735988,1.063094 0.171331,0.404993 0.257001,0.895651 0.257012,1.471975 z"
               style="line-height:125%;fill:#3092cf;fill-opacity:1;font-family:Droid Sans;-inkscape-font-specification:Droid Sans Bold"
               id="path4035" />
            <path
               inkscape:connector-curvature="0"
               d="m -36.597754,80.263527 c 0.350463,3e-6 0.683409,-0.03894 0.998841,-0.116823 0.315414,-0.07788 0.636679,-0.175233 0.963793,-0.292059 l 0,2.651893 c -0.334903,0.171341 -0.749625,0.313476 -1.24417,0.426405 -0.49456,0.11293 -1.033894,0.169394 -1.618005,0.169394 -0.568546,0 -1.098145,-0.0662 -1.588799,-0.198599 -0.490663,-0.1324 -0.915121,-0.3641 -1.273376,-0.6951 -0.358261,-0.330999 -0.640584,-0.774928 -0.84697,-1.331788 -0.20639,-0.556856 -0.309584,-1.255849 -0.309582,-2.096981 l 0,-6.296785 -1.705622,0 0,-1.507022 1.962634,-1.1916 1.028046,-2.757033 2.278058,0 0,2.780398 3.177598,0 0,2.675257 -3.177598,0 0,6.296785 c -6e-6,0.506239 0.124606,0.880074 0.373835,1.121505 0.249217,0.241438 0.576322,0.362156 0.981317,0.362153 z"
               style="line-height:125%;fill:#3092cf;fill-opacity:1;font-family:Droid Sans;-inkscape-font-specification:Droid Sans Bold"
               id="path4037" />
            <path
               inkscape:connector-curvature="0"
               d="m -25.184103,69.562498 c 0.09345,1.3e-5 0.196644,0.002 0.309582,0.0058 0.112921,0.0039 0.221956,0.0117 0.327106,0.02336 0.105132,0.0117 0.202485,0.02338 0.292059,0.03505 0.08956,0.0117 0.157702,0.02532 0.204441,0.04089 l 0,3.341151 c -0.06232,-0.01557 -0.147986,-0.03114 -0.257012,-0.04673 -0.109044,-0.01557 -0.223921,-0.0292 -0.344629,-0.04089 -0.120727,-0.01167 -0.239497,-0.01946 -0.356312,-0.02336 -0.116832,-0.0039 -0.214185,-0.0058 -0.292058,-0.0058 -0.459514,1e-5 -0.882025,0.05842 -1.267535,0.175235 -0.385524,0.116833 -0.716524,0.305697 -0.992999,0.566594 -0.276488,0.260914 -0.490665,0.603596 -0.642529,1.028046 -0.151876,0.424466 -0.227811,0.94433 -0.227806,1.559593 l 0,6.647255 -3.563116,0 0,-13.060863 2.698622,0 0.525706,1.962634 0.175235,0 c 0.186912,-0.334882 0.389406,-0.638623 0.607482,-0.911223 0.218064,-0.272575 0.461446,-0.504275 0.730147,-0.695099 0.268687,-0.190799 0.572428,-0.338775 0.911223,-0.443929 0.33878,-0.105128 0.726244,-0.157699 1.162393,-0.157712 z"
               style="line-height:125%;fill:#3092cf;fill-opacity:1;font-family:Droid Sans;-inkscape-font-specification:Droid Sans Bold"
               id="path4039" />
            <path
               inkscape:connector-curvature="0"
               d="m -18.65367,76.314894 c -5e-6,1.30064 0.183018,2.280009 0.54907,2.93811 0.366041,0.658109 0.96184,0.987161 1.787399,0.987159 0.817756,2e-6 1.409661,-0.330997 1.775716,-0.993 0.366038,-0.661995 0.549061,-1.639417 0.549071,-2.932269 -10e-6,-1.300627 -0.183033,-2.272207 -0.549071,-2.914745 -0.366055,-0.642519 -0.965748,-0.963783 -1.799081,-0.963794 -0.81777,1.1e-5 -1.407728,0.321275 -1.769875,0.963794 -0.362158,0.642538 -0.543234,1.614118 -0.543229,2.914745 z m 8.294466,0 c -1.4e-5,1.090358 -0.138255,2.056098 -0.414724,2.897222 -0.276494,0.841132 -0.673694,1.54986 -1.191599,2.126187 -0.517928,0.57633 -1.148775,1.014418 -1.89254,1.314264 -0.743785,0.299847 -1.579072,0.44977 -2.505864,0.44977 -0.864499,0 -1.658898,-0.149923 -2.383198,-0.44977 -0.72431,-0.299846 -1.349315,-0.737934 -1.875017,-1.314264 -0.525708,-0.576327 -0.936537,-1.285055 -1.232487,-2.126187 -0.295955,-0.841124 -0.443931,-1.806864 -0.44393,-2.897222 -10e-7,-1.082556 0.13824,-2.044402 0.414724,-2.885539 0.27648,-0.841119 0.673679,-1.5479 1.191599,-2.120346 0.517914,-0.572423 1.146813,-1.006617 1.886699,-1.302582 0.739877,-0.29594 1.577111,-0.443916 2.511705,-0.443929 0.864485,1.3e-5 1.658884,0.147989 2.383198,0.443929 0.724295,0.295965 1.3493,0.730159 1.875017,1.302582 0.525693,0.572446 0.936522,1.279227 1.232487,2.120346 0.29594,0.841137 0.443916,1.802983 0.44393,2.885539 z"
               style="line-height:125%;fill:#3092cf;fill-opacity:1;font-family:Droid Sans;-inkscape-font-specification:Droid Sans Bold"
               id="path4041" />
            <path
               inkscape:connector-curvature="0"
               d="m -6.9946896,65.7891 5.0000443,0 c 1.07476765,1.7e-5 2.01714266,0.07595 2.82712785,0.227806 0.80996525,0.151887 1.48754065,0.397216 2.03272825,0.735988 0.5451636,0.338803 0.9559924,0.782732 1.2324876,1.331787 0.2764687,0.549085 0.4147096,1.224713 0.4147233,2.026887 -1.37e-5,0.482883 -0.058425,0.9346 -0.1752352,1.355152 -0.1168368,0.420576 -0.2881778,0.790516 -0.5140233,1.109823 -0.2258714,0.319328 -0.5004063,0.586074 -0.8236054,0.800241 -0.3232234,0.214186 -0.695111,0.356321 -1.1156641,0.426406 l 0,0.116823 c 0.4283413,0.09347 0.8274877,0.227815 1.1974405,0.403041 0.3699284,0.175244 0.6931397,0.416679 0.9696348,0.724306 0.2764687,0.307642 0.494539,0.695106 0.6542114,1.162393 0.1596447,0.4673 0.239474,1.03584 0.2394881,1.705623 -1.41e-5,0.778827 -0.136308,1.473926 -0.4088821,2.085298 -0.2726015,0.611379 -0.6639597,1.129296 -1.1740758,1.553753 -0.5101412,0.424459 -1.1293049,0.749617 -1.8574931,0.975475 -0.72820955,0.225859 -1.55181415,0.338788 -2.47081631,0.338788 l -6.02809079,0 z m 3.6215274,6.764079 1.8808578,0 c 0.4517093,1e-5 0.82943812,-0.04088 1.13318761,-0.122665 0.30373192,-0.08177 0.54906095,-0.20443 0.73598782,-0.367994 0.18690784,-0.163542 0.32125469,-0.367983 0.40304096,-0.613323 0.0817664,-0.245318 0.12265459,-0.531535 0.12266464,-0.858653 C 0.90256658,69.936346 0.69812572,69.467105 0.28925344,69.182822 -0.11963771,68.898565 -0.7680073,68.75643 -1.6558573,68.756416 l -1.7173049,0 z m 0,2.873857 0,4.450974 2.1261871,0 c 0.47507369,3e-6 0.87422013,-0.05452 1.19744049,-0.163553 0.32320217,-0.109032 0.58410764,-0.264796 0.78271721,-0.467294 0.19858982,-0.20249 0.3407249,-0.447819 0.4264056,-0.735988 0.08566,-0.28816 0.1284954,-0.607477 0.1285059,-0.957952 C 1.2880836,77.233911 1.2452484,76.9438 1.1595882,76.682888 1.0739075,76.421989 0.9278783,76.198077 0.72150026,76.011153 0.51510247,75.824243 0.24446172,75.68016 -0.09042282,75.578906 -0.42532547,75.477667 -0.84199542,75.427043 -1.3404339,75.427036 z"
               style="line-height:125%;fill:#3092cf;fill-opacity:1;font-family:Droid Sans;-inkscape-font-specification:Droid Sans Bold"
               id="path4043" />
            <path
               d="m 11.66202,82.86869 -3.5631159,0 0,-13.060863 3.5631159,0 z"
               style="line-height:125%;fill:#3092cf;fill-opacity:1;font-family:Droid Sans;-inkscape-font-specification:Droid Sans Bold"
               id="path4045"
               inkscape:connector-curvature="0"
               sodipodi:nodetypes="ccccc" />
            <path
               inkscape:connector-curvature="0"
               d="m 26.720567,82.86869 -3.563115,0 0,-7.628572 c -10e-6,-0.942367 -0.142145,-1.649148 -0.426406,-2.120346 -0.284279,-0.471177 -0.737943,-0.706771 -1.360993,-0.706782 -0.467301,1.1e-5 -0.856713,0.09347 -1.168235,0.280377 -0.311535,0.186927 -0.558812,0.463409 -0.741829,0.829446 -0.183029,0.366056 -0.313482,0.817773 -0.391358,1.355153 -0.07789,0.537395 -0.116829,1.152665 -0.116824,1.84581 l 0,6.144914 -3.563116,0 0,-13.060863 2.721987,0 0.478976,1.670576 0.1986,0 c 0.186912,-0.334883 0.414718,-0.623047 0.683418,-0.864494 0.268687,-0.241423 0.562693,-0.440022 0.882017,-0.5958 0.31931,-0.155751 0.658098,-0.270628 1.016364,-0.344629 0.35825,-0.07398 0.724297,-0.110969 1.09814,-0.110982 0.638626,1.3e-5 1.218848,0.09152 1.74067,0.274535 0.5218,0.183036 0.969623,0.469253 1.34347,0.858652 0.373823,0.389424 0.661987,0.885923 0.864493,1.4895 0.202481,0.603598 0.303728,1.325955 0.303741,2.167075 z"
               style="line-height:125%;fill:#3092cf;fill-opacity:1;font-family:Droid Sans;-inkscape-font-specification:Droid Sans Bold"
               id="path4047" />
          </g>
        </g>
        <path
           inkscape:transform-center-y="-0.41861048"
           inkscape:transform-center-x="-0.015938498"
           transform="matrix(0.99564449,-0.09323117,0.09323117,0.99564449,-106.51865,68.74525)"
           d="m 119.10653,10.341001 -2.5088,-1.6752102 -2.80228,1.1169922 0.81795,-2.9036844 -1.92827,-2.3199555 3.01433,-0.1193657 1.61054,-2.5508036 1.045,2.8299123 2.92365,0.7434722 -2.36849,1.8683477 z"
           inkscape:randomized="0"
           inkscape:rounded="0"
           inkscape:flatsided="false"
           sodipodi:arg2="1.6755161"
           sodipodi:arg1="1.0471976"
           sodipodi:r2="2.2713819"
           sodipodi:r1="4.5427637"
           sodipodi:cy="6.4068518"
           sodipodi:cx="116.83515"
           sodipodi:sides="5"
           id="path4066"
           style="opacity:0.75;fill:#000000;fill-opacity:1;filter:url(#filter4164)"
           sodipodi:type="star" />
        <path
           sodipodi:type="star"
           style="fill:#3092cf;fill-opacity:1"
           id="path4064"
           sodipodi:sides="5"
           sodipodi:cx="116.83515"
           sodipodi:cy="6.4068518"
           sodipodi:r1="4.5427637"
           sodipodi:r2="2.2713819"
           sodipodi:arg1="1.0471976"
           sodipodi:arg2="1.6755161"
           inkscape:flatsided="false"
           inkscape:rounded="0"
           inkscape:randomized="0"
           d="m 119.10653,10.341001 -2.5088,-1.6752102 -2.80228,1.1169922 0.81795,-2.9036844 -1.92827,-2.3199555 3.01433,-0.1193657 1.61054,-2.5508036 1.045,2.8299123 2.92365,0.7434722 -2.36849,1.8683477 z"
           transform="matrix(0.99564449,-0.09323117,0.09323117,0.99564449,-107.03486,68.289879)"
           inkscape:transform-center-x="-0.015938498"
           inkscape:transform-center-y="-0.41861048" />
      </g>
    </g>
  </g>
</svg>
