<?xml version="1.0" encoding="UTF-8" standalone="no"?>
<svg
  xmlns:dc="http://purl.org/dc/elements/1.1/"
  xmlns:cc="http://creativecommons.org/ns#"
  xmlns:rdf="http://www.w3.org/1999/02/22-rdf-syntax-ns#"
  xmlns="http://www.w3.org/2000/svg"
  xmlns:sodipodi="http://sodipodi.sourceforge.net/DTD/sodipodi-0.dtd"
  xmlns:inkscape="http://www.inkscape.org/namespaces/inkscape"
  id="4e463a22-6ddb-479b-a6e5-bedc922df74f"
  data-name="Layer 1"
  width="1100.02"
  height="811.41"
  viewBox="0 0 1100.02 811.41"
  version="1.1"
  sodipodi:docname="undraw_feeling_blue_4b7q.svg"
  inkscape:version="1.0.1 (c497b03c, 2020-09-10)">
  <metadata
     id="metadata434">
    <rdf:RDF>
      <cc:Work
         rdf:about="">
        <dc:format>image/svg+xml</dc:format>
        <dc:type
           rdf:resource="http://purl.org/dc/dcmitype/StillImage" />
      </cc:Work>
    </rdf:RDF>
  </metadata>
  <sodipodi:namedview
     pagecolor="#ffffff"
     bordercolor="#666666"
     borderopacity="1"
     objecttolerance="10"
     gridtolerance="10"
     guidetolerance="10"
     inkscape:pageopacity="0"
     inkscape:pageshadow="2"
     inkscape:window-width="1225"
     inkscape:window-height="826"
     id="namedview432"
     showgrid="false"
     inkscape:zoom="0.73709606"
     inkscape:cx="550.01001"
     inkscape:cy="404.78068"
     inkscape:window-x="0"
     inkscape:window-y="23"
     inkscape:window-maximized="0"
     inkscape:current-layer="4e463a22-6ddb-479b-a6e5-bedc922df74f" />
  <defs
     id="defs273">
    <linearGradient
       id="785c60ff-874e-47fc-85e9-4f7317d8d736"
       x1="942.13"
       y1="802.28"
       x2="942.13"
       y2="308.24"
       gradientUnits="userSpaceOnUse">
      <stop
         offset="0"
         stop-color="gray"
         stop-opacity="0.25"
         id="stop266" />
      <stop
         offset="0.54"
         stop-color="gray"
         stop-opacity="0.12"
         id="stop268" />
      <stop
         offset="1"
         stop-color="gray"
         stop-opacity="0.1"
         id="stop270" />
    </linearGradient>
  </defs>
  <title
     id="title275">feeling blue</title>
  <path
     d="M61.83,433.31C79.2,500.44,115.94,558.47,174,586.6c120.7,58.46,392.91,28.31,596.07-6.3C875.16,562.4,967.53,513,1034.63,443.48Z"
     transform="translate(-49.99 -44.29)"
     fill="#cc4b2e"
     opacity="0.1"
     id="path277" />
  <path
     d="M1127.19,117.32H1015.72c-5.29,0-9.63-3.92-9.63-8.71s4.34-8.72,9.63-8.72H1035c-5.3,0-9.63-3.92-9.63-8.72s4.33-8.71,9.63-8.71h-13.76c-5.3,0-9.64-3.92-9.64-8.72s4.34-8.71,9.64-8.71h58.18c-12.91-5.43-28-9.29-45.39-11.32C875.38,35.28,818.74,47.47,798.76,60a234.52,234.52,0,0,1-81.54,32.34c-97.88,18.27-280.93,40.25-446.84-7C187.92,61.81,126.63,101.52,89.9,167.9H1146.55c-1.38-19.29-5.51-37.11-13.09-52.7A10.17,10.17,0,0,1,1127.19,117.32Z"
     fill="#cc4b2e"
     opacity="0.1"
     id="path279"
     transform="translate(-49.99 -44.29)" />
  <path
     d="M52.38,293.19A402.53,402.53,0,0,0,56.7,410.31l978.68,32.39a415.21,415.21,0,0,0,68-93.82Zm387.08,83.55H420.19c5.3,0,9.64,3.93,9.64,8.72s-4.34,8.71-9.64,8.71H308.72c-5.29,0-9.63-3.92-9.63-8.71s4.34-8.72,9.63-8.72H328c-5.3,0-9.63-3.92-9.63-8.71s4.33-8.72,9.63-8.72H314.23c-5.3,0-9.64-3.92-9.64-8.71s4.34-8.72,9.64-8.72H425.7c5.3,0,9.63,3.92,9.63,8.72s-4.33,8.71-9.63,8.71h13.76c5.3,0,9.63,3.92,9.63,8.72S444.76,376.74,439.46,376.74Z"
     transform="translate(-49.99 -44.29)"
     fill="#cc4b2e"
     opacity="0.1"
     id="path281" />
  <path
     d="M1146.59,168.5,78.11,192c-13,30.23-21.62,64.41-25.59,99.83H1127.87a379.29,379.29,0,0,0,15.52-63.63C1146.6,207.39,1147.88,187.26,1146.59,168.5ZM269.46,245.55H250.19c5.3,0,9.64,3.93,9.64,8.72s-4.34,8.72-9.64,8.72H138.72c-5.29,0-9.63-3.93-9.63-8.72s4.34-8.72,9.63-8.72H158c-5.3,0-9.63-3.92-9.63-8.71s4.33-8.72,9.63-8.72H144.23c-5.3,0-9.64-3.92-9.64-8.71s4.34-8.72,9.64-8.72H255.7c5.3,0,9.63,3.92,9.63,8.72s-4.33,8.71-9.63,8.71h13.76c5.3,0,9.63,3.93,9.63,8.72S274.76,245.55,269.46,245.55Z"
     transform="translate(-49.99 -44.29)"
     fill="#cc4b2e"
     opacity="0.1"
     id="path283" />
  <ellipse
     cx="545.08"
     cy="739.96"
     rx="446.98"
     ry="41.12"
     fill="#cc4b2e"
     opacity="0.1"
     id="ellipse285" />
  <circle
     cx="518.99"
     cy="454.79"
     r="308.5"
     fill="#cc4b2e"
     id="circle385" />
  <path
     d="M730.85,654.11c0,48.7-76.56,4.16-158.64,4.16s-165.1,42.7-165.1-6c0-27.77,26.46-66.39,64.42-94.44h0c28.6-21.14,63.72-36.28,99-36.28,36.28,0,71.82,16.39,100.17,38.89C706.48,588.81,730.85,626.93,730.85,654.11Z"
     transform="translate(-49.99 -44.29)"
     fill="#444053"
     id="path387" />
  <path
     d="M670.69,560.42c-43.63-6.57-122.54-14.58-199.16-2.61,28.6-21.14,63.72-36.28,99-36.28C606.8,521.53,642.34,537.92,670.69,560.42Z"
     transform="translate(-49.99 -44.29)"
     fill="#f6f8fb"
     id="path389" />
  <path
     d="M407.11,281.31s-92.93,59.41-92.17,152.34S407.11,281.31,407.11,281.31Z"
     transform="translate(-49.99 -44.29)"
     opacity="0.05"
     id="path391" />
  <path
     d="M877.36,113.52s-84.2-5.07-74.27,53.93c0,0-2,10.42,7.48,15.16,0,0,.15-4.37,8.63-2.89a39,39,0,0,0,9.15.44,19,19,0,0,0,11.18-4.62h0s23.67-9.77,32.88-48.46c0,0,6.81-8.44,6.54-10.6l-14.21,6.06s4.85,10.25,1,18.77c0,0-.46-18.39-3.19-18-.55.09-7.38,3.55-7.38,3.55s8.35,17.86,2,30.83c0,0,2.39-22-4.66-29.54l-10,5.84s9.76,18.44,3.14,33.49c0,0,1.7-23.08-5.24-32.07l-9.07,7.07s9.17,18.18,3.58,30.66c0,0-.73-26.87-5.54-28.9,0,0-7.93,7-9.14,9.87,0,0,6.28,13.19,2.39,20.15,0,0-2.39-17.9-4.35-18,0,0-7.9,11.86-8.73,20,0,0,.35-12.1,6.81-21.13,0,0-7.64,1.31-12.09,6.27,0,0,1.23-8.39,14-9.12,0,0,6.53-9,8.28-9.54,0,0-12.75-1.07-20.48,2.36,0,0,6.8-7.91,22.81-4.32l9-7.3s-16.78-2.3-23.9.24c0,0,8.19-7,26.31-1.9l9.75-5.83s-14.31-3.08-22.84-2c0,0,9-4.85,25.69.41l7-3.13s-10.49-2.06-13.56-2.38-3.23-1.18-3.23-1.18A36.35,36.35,0,0,1,862.83,120S877.61,114.45,877.36,113.52Z"
     transform="translate(-49.99 -44.29)"
     fill="#cc4b2e"
     id="path393" />
  <path
     d="M791,87.29s-38-2.3-33.56,24.36c0,0-.89,4.71,3.38,6.85,0,0,.06-2,3.9-1.3a18.06,18.06,0,0,0,4.13.2,8.69,8.69,0,0,0,5.06-2.09h0s10.69-4.42,14.85-21.9c0,0,3.08-3.81,3-4.79l-6.42,2.74s2.2,4.63.47,8.48c0,0-.21-8.31-1.44-8.11-.25,0-3.34,1.6-3.34,1.6s3.78,8.07.93,13.93c0,0,1.08-9.94-2.1-13.35l-4.52,2.64s4.41,8.34,1.42,15.14c0,0,.76-10.43-2.37-14.49l-4.1,3.19s4.14,8.21,1.62,13.85c0,0-.33-12.14-2.51-13.06,0,0-3.58,3.16-4.13,4.46,0,0,2.84,6,1.08,9.11,0,0-1.08-8.09-2-8.12,0,0-3.57,5.35-3.94,9a19.48,19.48,0,0,1,3.07-9.55,10.71,10.71,0,0,0-5.46,2.83s.55-3.79,6.34-4.12c0,0,2.95-4.06,3.74-4.31,0,0-5.76-.48-9.25,1.07,0,0,3.07-3.58,10.31-2l4-3.29s-7.58-1-10.8.1c0,0,3.7-3.16,11.89-.85l4.4-2.64s-6.46-1.39-10.32-.89c0,0,4.07-2.19,11.61.19l3.15-1.42s-4.74-.93-6.12-1.07-1.47-.53-1.47-.53a16.39,16.39,0,0,1,8.9,1S791.11,87.71,791,87.29Z"
     transform="translate(-49.99 -44.29)"
     fill="#cc4b2e"
     id="path395" />
  <ellipse
     cx="1073.09"
     cy="725.46"
     rx="26.93"
     ry="4.55"
     fill="#cc4b2e"
     opacity="0.1"
     id="ellipse397" />
  <ellipse
     cx="46.77"
     cy="801.15"
     rx="26.93"
     ry="4.55"
     fill="#cc4b2e"
     opacity="0.1"
     id="ellipse399" />
  <ellipse
     cx="203.1"
     cy="806.86"
     rx="26.93"
     ry="4.55"
     fill="#cc4b2e"
     opacity="0.1"
     id="ellipse401" />
  <ellipse
     cx="1014.15"
     cy="774.22"
     rx="40.21"
     ry="6.8"
     fill="#cc4b2e"
     id="ellipse403" />
  <path
     d="M1080.76,807.4a11.73,11.73,0,0,0,3.84-5.79c.49-2.29-.49-5.05-2.68-5.89-2.46-.94-5.09.77-7.08,2.49s-4.28,3.68-6.89,3.32a10.47,10.47,0,0,0,3.24-9.81,4.12,4.12,0,0,0-.9-2c-1.37-1.46-3.84-.84-5.48.31-5.2,3.66-6.65,10.72-6.68,17.08-.52-2.29-.08-4.68-.09-7s-.66-5-2.64-6.23a8,8,0,0,0-4-.94c-2.34-.09-4.94.14-6.54,1.85-2,2.13-1.47,5.69.26,8s4.35,3.81,6.76,5.42a15,15,0,0,1,4.84,4.61,4.83,4.83,0,0,1,.36.83h14.65A40.77,40.77,0,0,0,1080.76,807.4Z"
     transform="translate(-49.99 -44.29)"
     fill="#cc4b2e"
     id="path405" />
  <path
     d="M109.33,723.55s5.49,7.18-2.54,18-14.65,20-12,26.76c0,0,12.11-20.14,22-20.43S120.17,735.66,109.33,723.55Z"
     transform="translate(-49.99 -44.29)"
     fill="#cc4b2e"
     id="path407" />
  <path
     d="M109.33,723.55a9,9,0,0,1,1.12,2.25c9.62,11.3,14.74,21.85,5.5,22.11-8.62.25-19,15.65-21.43,19.54a9.3,9.3,0,0,0,.3.89s12.11-20.14,22-20.43S120.17,735.66,109.33,723.55Z"
     transform="translate(-49.99 -44.29)"
     opacity="0.1"
     id="path409" />
  <path
     d="M119.54,732.7c0,2.53-.29,4.58-.64,4.58s-.63-2-.63-4.58.35-1.34.71-1.34S119.54,730.17,119.54,732.7Z"
     transform="translate(-49.99 -44.29)"
     fill="#ffd037"
     id="path411" />
  <path
     d="M123,735.72c-2.22,1.21-4.15,1.94-4.32,1.63s1.5-1.53,3.72-2.74,1.34-.33,1.51,0S125.26,734.51,123,735.72Z"
     transform="translate(-49.99 -44.29)"
     fill="#ffd037"
     id="path413" />
  <path
     d="M80.31,723.55s-5.49,7.18,2.53,18,14.65,20,12,26.76c0,0-12.12-20.14-22-20.43S69.46,735.66,80.31,723.55Z"
     transform="translate(-49.99 -44.29)"
     fill="#cc4b2e"
     id="path415" />
  <path
     d="M80.31,723.55a8.63,8.63,0,0,0-1.12,2.25c-9.62,11.3-14.75,21.85-5.5,22.11,8.61.25,19,15.65,21.42,19.54a9.24,9.24,0,0,1-.29.89s-12.12-20.14-22-20.43S69.46,735.66,80.31,723.55Z"
     transform="translate(-49.99 -44.29)"
     opacity="0.1"
     id="path417" />
  <path
     d="M70.1,732.7c0,2.53.28,4.58.63,4.58s.63-2,.63-4.58-.35-1.34-.7-1.34S70.1,730.17,70.1,732.7Z"
     transform="translate(-49.99 -44.29)"
     fill="#ffd037"
     id="path419" />
  <path
     d="M66.59,735.72c2.22,1.21,4.16,1.94,4.33,1.63s-1.5-1.53-3.72-2.74-1.35-.33-1.51,0S64.37,734.51,66.59,735.72Z"
     transform="translate(-49.99 -44.29)"
     fill="#ffd037"
     id="path421" />
  <path
     d="M71.85,767.4s15.36-.47,20-3.77,23.63-7.23,24.78-2,23.08,26.3,5.74,26.44-40.29-2.71-44.91-5.52S71.85,767.4,71.85,767.4Z"
     transform="translate(-49.99 -44.29)"
     fill="#a8a8a8"
     id="path423" />
  <path
     d="M122.66,786.28c-17.34.14-40.29-2.71-44.91-5.52-3.52-2.14-4.92-9.83-5.39-13.38l-.51,0s1,12.39,5.59,15.2,27.57,5.66,44.91,5.52c5,0,6.73-1.83,6.64-4.46C128.29,785.25,126.39,786.25,122.66,786.28Z"
     transform="translate(-49.99 -44.29)"
     opacity="0.2"
     id="path425" />
  <path
     d="M459.3,458.63c5.87-.33,33.5-2.41,51.05-12.42a19.89,19.89,0,0,1,9.27-2.73c5.58-.16,12,2.17,7.89,15.21-6.66,21.33-45.33,45.33-69.33,44-23.08-1.28-50.46-10.58-68.54-43.28a20,20,0,0,1-2.47-10.29c.21-6.6,2.61-14.87,15-5.65,16.74,12.45,48.5,14.81,54.87,15.16A21.11,21.11,0,0,0,459.3,458.63Z"
     transform="translate(-49.99 -44.29)"
     fill="#444053"
     id="path427" />
  <path
     d="M681.3,458.63c5.87-.33,33.5-2.41,51.05-12.42a19.89,19.89,0,0,1,9.27-2.73c5.58-.16,12,2.17,7.89,15.21-6.66,21.33-45.33,45.33-69.33,44-23.08-1.28-50.46-10.58-68.54-43.28a20,20,0,0,1-2.47-10.29c.21-6.6,2.61-14.87,15-5.65,16.74,12.45,48.5,14.81,54.87,15.16A21.11,21.11,0,0,0,681.3,458.63Z"
     transform="translate(-49.99 -44.29)"
     fill="#444053"
     id="path429" />
</svg>
